<?xml version="1.0" encoding="UTF-8" standalone="no"?>
<svg
   xmlns:dc="http://purl.org/dc/elements/1.1/"
   xmlns:cc="http://creativecommons.org/ns#"
   xmlns:rdf="http://www.w3.org/1999/02/22-rdf-syntax-ns#"
   xmlns:svg="http://www.w3.org/2000/svg"
   xmlns="http://www.w3.org/2000/svg"
   xmlns:sodipodi="http://sodipodi.sourceforge.net/DTD/sodipodi-0.dtd"
   xmlns:inkscape="http://www.inkscape.org/namespaces/inkscape"
   width="115.43688mm"
   height="115.43688mm"
   viewBox="0 0 115.43688 115.43688"
   version="1.1"
   id="svg70"
   inkscape:version="1.0.1 (3bc2e813f5, 2020-09-07)"
   sodipodi:docname="403.svg">
  <defs
     id="defs64" />
  <sodipodi:namedview
     id="base"
     pagecolor="#ffffff"
     bordercolor="#666666"
     borderopacity="1.0"
     inkscape:pageopacity="0.0"
     inkscape:pageshadow="2"
     inkscape:zoom="1.4"
     inkscape:cx="271.95008"
     inkscape:cy="201.11631"
     inkscape:document-units="mm"
     inkscape:current-layer="layer1"
     inkscape:document-rotation="0"
     showgrid="false"
     inkscape:window-width="2560"
     inkscape:window-height="1377"
     inkscape:window-x="1912"
     inkscape:window-y="-8"
     inkscape:window-maximized="1" />
  <metadata
     id="metadata67">
    <rdf:RDF>
      <cc:Work
         rdf:about="">
        <dc:format>image/svg+xml</dc:format>
        <dc:type
           rdf:resource="http://purl.org/dc/dcmitype/StillImage" />
        <dc:title></dc:title>
      </cc:Work>
    </rdf:RDF>
  </metadata>
  <g
     inkscape:label="Ebene 1"
     inkscape:groupmode="layer"
     id="layer1"
     transform="translate(-47.281351,-90.781538)">
    <path
       id="path118"
       style="fill:#ff0000;stroke:#00a1ff;stroke-width:0;stroke-miterlimit:4;stroke-dasharray:none"
       d="M 396.84961,343.11133 A 218.14829,218.14829 0 0 0 178.70117,561.25977 218.14829,218.14829 0 0 0 396.84961,779.4082 218.14829,218.14829 0 0 0 614.99805,561.25977 218.14829,218.14829 0 0 0 396.84961,343.11133 Z m 0,39.16797 A 178.98003,178.98003 0 0 1 575.83008,561.25977 178.98003,178.98003 0 0 1 396.84961,740.24023 178.98003,178.98003 0 0 1 217.87109,561.25977 178.98003,178.98003 0 0 1 396.84961,382.2793 Z"
       transform="scale(0.26458333)" />
    <rect
       style="fill:#ff0000;stroke:#00a1ff;stroke-width:0;stroke-miterlimit:4;stroke-dasharray:none"
       id="rect949"
       width="106.21131"
       height="9.0714283"
       x="123.1857"
       y="40.393356"
       transform="rotate(39.320317)" />
    <path
       style="fill:#000000;stroke-width:0.862711"
       d="m 97.032639,173.87717 c -2.789311,-2.13811 -3.629782,-3.69735 -5.761079,-10.6882 -1.372427,-4.50173 -3.044453,-7.9608 -3.232263,-8.40271 -0.341677,-0.80392 0,0 -0.341677,-0.80392 -0.205084,-0.4826 -0.228021,-2.17245 -1.287663,-3.9627 -3.959035,-6.68877 -3.816686,-9.30113 0.464183,-8.51849 1.747132,0.31942 3.193775,1.70174 5.442101,5.20021 1.684295,2.62085 3.160557,5.35734 3.280543,6.08109 0.170756,1.0299 0.602341,1.17332 1.985616,0.66002 1.97479,-0.73301 2.00775,-0.84396 6.76294,-22.77923 3.10808,-14.33708 4.23567,-16.77771 6.97922,-15.10605 1.00198,0.61053 0.89342,2.78108 -0.60361,12.06847 -1.47219,9.13324 -1.59088,11.36693 -0.61344,11.54563 1.74236,0.31854 3.18303,-3.25704 5.92417,-14.70311 1.32803,-5.54548 2.87912,-10.49109 3.44682,-10.99023 1.19166,-1.04773 3.96439,-0.73813 4.4472,0.49649 0.18064,0.46192 -1.22334,6.94946 -3.11986,14.41681 -2.52638,9.94715 -3.24229,13.87514 -2.67731,14.69234 1.50479,2.17813 2.69548,-0.44381 6.43418,-11.46854 1.21899,-3.59456 0.97796,-4.03385 3.65697,-10.78369 l 0.84806,-1.19568 c 1.44619,-2.03905 4.6532,0.50256 -0.38731,16.63356 -1.97031,6.30559 -3.40943,11.71508 -3.19804,12.02104 1.01582,1.47035 3.08602,-0.43273 6.81653,-6.26628 3.11597,-4.8726 4.46708,-6.31056 5.71502,-6.08242 1.01717,0.18596 1.52726,0.88447 1.35078,1.84977 -0.25543,1.3971 -5.2123,9.93195 -7.44676,12.82194 -1.03935,1.34426 -4.56619,8.05854 -7.57372,14.41862 -1.15879,2.4505 -3.03841,5.14896 -4.17693,5.99653 -1.13851,0.84757 -2.13768,1.91109 -2.22037,2.36338 -0.0827,0.45229 -1.78852,1.73555 -3.79071,2.85169 -3.17862,1.77193 -4.28834,1.90931 -8.74889,1.08322 -3.55582,-0.66 -6.10095,-1.70684 -8.374264,-3.44943 z"
       id="path100"
       sodipodi:nodetypes="sssssssscsssssssssscssssssssssscss" />
    <path
       style="fill:#000000;stroke-width:0.521333"
       d="m 73.353079,182.49636 c 0.379334,-0.45707 3.1466,-2.95214 6.149479,-5.5446 l 5.459781,-4.71358 4.841414,0.34033 c 2.662784,0.18718 5.378698,0.55596 6.035369,0.81955 l 1.193954,0.47924 -1.303334,0.0177 c -0.716841,0.01 -3.054404,-0.21028 -5.194587,-0.488 -2.140189,-0.27771 -4.324011,-0.3676 -4.852935,-0.19973 -0.528924,0.16788 -3.46301,2.51376 -6.520194,5.21306 -5.026424,4.43802 -7.61852,6.25719 -5.808947,4.07679 z m 1.448662,-15.54179 c 4.62113,-1.53417 6.267129,-4.59908 6.465947,-12.03987 l 0.125376,-4.69201 -6.256007,-0.28614 -6.256006,-0.28614 6.907674,-0.10483 c 3.799221,-0.0578 6.907673,-0.23671 6.907673,-0.39789 0,-1.00656 -1.860808,-5.86591 -2.554196,-6.67011 -1.271697,-1.47488 -4.501529,-2.94472 -6.418044,-2.92069 -2.484275,0.0311 -6.213738,2.04759 -7.575474,4.09593 -0.780262,1.17369 -1.177637,2.55328 -1.177637,4.08846 0,1.52759 -0.355235,2.7686 -1.042669,3.64252 -1.591737,2.02358 -1.101392,5.87695 0.747848,5.87695 0.674742,0 1.459541,4.37833 0.957833,5.34367 -0.307648,0.59193 -5.876351,0.46843 -5.876351,-0.13044 0,-0.28672 1.173001,-0.52132 2.606668,-0.52132 2.544258,0 2.606671,-0.0372 2.606671,-1.55198 0,-1.08017 -0.396228,-1.8116 -1.303334,-2.40598 -1.116934,-0.73184 -1.303337,-1.24635 -1.303337,-3.59753 0,-1.80269 0.268171,-2.9661 0.782001,-3.39252 0.44488,-0.36924 0.782001,-1.50586 0.782001,-2.63657 0,-3.88946 1.829775,-6.68686 5.474006,-8.36879 2.479757,-1.14446 5.897467,-1.25805 8.252097,-0.27421 2.042948,0.85359 4.408177,3.5317 4.817484,5.45474 0.248729,1.16858 0.887779,2.8308 1.662697,4.32476 0.0926,0.17852 -0.310419,0.44984 -0.895611,0.60286 -0.869871,0.22748 -1.063986,0.70121 -1.063986,2.59659 0,1.27509 -0.14971,3.75073 -0.332704,5.50146 l -0.332702,3.18312 4.633706,0.17477 4.63371,0.17479 -4.770842,0.10718 -4.770846,0.10719 -1.053939,1.78628 c -1.329593,2.25351 -3.077019,3.40654 -5.640916,3.72215 l -2.010145,0.24747 z m -1.068648,-3.30752 c -1.307344,-1.5222 -1.48904,-2.70909 -0.702798,-4.59082 0.619941,-1.48373 1.023244,-1.79552 2.322479,-1.79552 1.020886,0 1.76152,0.35363 2.111938,1.00838 1.882723,3.51792 -1.340072,8.16255 -3.731619,5.37796 z m 3.211415,-1.30965 c 1.506036,-2.67101 -1.207834,-6.1075 -2.945999,-3.73042 -0.944952,1.29231 -0.859452,3.33277 0.188153,4.49036 1.076193,1.18917 1.766024,0.99909 2.757846,-0.75994 z"
       id="path965" />
  </g>
</svg>
