<?xml version="1.0" encoding="UTF-8" standalone="no"?>
<svg
   xmlns:dc="http://purl.org/dc/elements/1.1/"
   xmlns:cc="http://creativecommons.org/ns#"
   xmlns:rdf="http://www.w3.org/1999/02/22-rdf-syntax-ns#"
   xmlns:svg="http://www.w3.org/2000/svg"
   xmlns="http://www.w3.org/2000/svg"
   xmlns:sodipodi="http://sodipodi.sourceforge.net/DTD/sodipodi-0.dtd"
   xmlns:inkscape="http://www.inkscape.org/namespaces/inkscape"
   width="89.009018mm"
   height="88.314072mm"
   viewBox="0 0 89.009018 88.314072"
   version="1.1"
   id="svg1031"
   inkscape:version="1.0.1 (3bc2e813f5, 2020-09-07)"
   sodipodi:docname="404.svg">
  <defs
     id="defs1025" />
  <sodipodi:namedview
     id="base"
     pagecolor="#ffffff"
     bordercolor="#666666"
     borderopacity="1.0"
     inkscape:pageopacity="0.0"
     inkscape:pageshadow="2"
     inkscape:zoom="1.4"
     inkscape:cx="7.0489696"
     inkscape:cy="117.78516"
     inkscape:document-units="mm"
     inkscape:current-layer="layer1"
     inkscape:document-rotation="0"
     showgrid="false"
     inkscape:window-width="2560"
     inkscape:window-height="1377"
     inkscape:window-x="1912"
     inkscape:window-y="-8"
     inkscape:window-maximized="1" />
  <metadata
     id="metadata1028">
    <rdf:RDF>
      <cc:Work
         rdf:about="">
        <dc:format>image/svg+xml</dc:format>
        <dc:type
           rdf:resource="http://purl.org/dc/dcmitype/StillImage" />
        <dc:title></dc:title>
      </cc:Work>
    </rdf:RDF>
  </metadata>
  <g
     inkscape:label="Ebene 1"
     inkscape:groupmode="layer"
     id="layer1"
     transform="translate(-69.217809,-169.83281)">
    <path
       style="fill:#000000;stroke-width:0.973306"
       d="m 105.70318,257.79642 c -23.297065,-4.59989 -39.60162,-27.25367 -35.982056,-49.99397 4.26638,-26.80414 31.111826,-43.91281 56.562296,-36.04729 22.44079,6.93535 36.37954,30.62835 30.65782,52.11188 -4.01704,15.08292 -14.07368,26.56087 -27.75768,31.6807 -5.32565,1.99257 -18.42416,3.24699 -23.48038,2.24868 z m 21.89562,-9.15235 c 7.91817,-3.02344 16.11786,-10.89883 20.15492,-19.35776 2.67378,-5.60239 3.0398,-7.37333 3.02976,-14.65803 -0.0184,-14.24051 -6.05545,-25.23983 -17.67926,-32.21771 -19.32888,-11.60332 -43.027067,-4.61165 -53.006086,15.63832 -2.868274,5.8205 -3.107533,7.05704 -3.107533,16.0596 0,8.64613 0.309741,10.41659 2.727456,15.59336 4.519103,9.67601 11.805023,16.06467 22.740523,19.94012 7.20963,2.55504 16.83616,2.1729 25.14022,-0.9979 z M 93.057589,236.04221 c -1.944089,-3.63259 3.085426,-10.91008 10.698971,-15.48094 5.13284,-3.08153 14.32835,-2.85132 20.51064,0.5135 7.85868,4.27723 12.6535,13.60656 8.36538,16.27656 -1.47646,0.91933 -2.06243,0.71539 -3.40657,-1.18563 -5.26878,-7.45149 -8.48564,-10.0602 -13.03811,-10.57334 -2.49099,-0.28068 -5.64204,-0.23102 -7.00237,0.11036 -2.99441,0.75155 -9.322193,6.13009 -9.322193,7.92376 0,1.69358 -2.695673,4.34856 -4.415181,4.34856 -0.745882,0 -1.821664,-0.86974 -2.390567,-1.93276 z m 3.885825,-29.97564 c -4.953919,-1.577 -6.586243,-8.22412 -2.919923,-11.89044 5.518148,-5.51815 14.457839,1.75011 10.726919,8.7214 -1.08262,2.02292 -5.620705,3.86504 -7.806996,3.16904 z m 30.172526,0.003 c -2.66779,-0.84355 -5.83985,-4.41698 -5.83985,-6.57877 0,-3.46407 3.62299,-7.26139 6.92803,-7.26139 3.1086,0 7.67159,3.7094 7.67159,6.23645 0,4.55776 -4.91103,8.82068 -8.75977,7.60371 z"
       id="path1063" />
    <path
       style="fill:#f9f9f9;stroke-width:0.521151"
       d="m 107.65203,251.23931 c -11.18789,-1.4858 -21.147256,-6.88977 -28.428666,-15.42546 -1.422159,-1.66715 -3.923858,-4.48342 -5.559338,-6.25838 -3.713939,-4.03072 -4.232043,-6.54374 -0.609433,-2.95603 l 2.364162,2.34139 1.190866,-1.50137 c 3.117274,-3.93014 2.995515,-11.35722 -0.264123,-16.1109 -1.199157,-1.74879 -5.55769,-3.36233 -6.297239,-2.17616 -0.372131,0.59687 -0.459419,0.57033 -0.465853,-0.14173 -0.02072,-2.29209 0.395105,-2.46353 3.553826,-1.46513 3.367262,1.06429 9.177558,2.2511 18.757242,3.62341 5.10886,0.73188 10.097046,0.92951 23.788796,0.94251 19.14342,0.018 24.33829,-0.46986 36.13197,-3.39454 7.04158,-1.74623 5.62579,-1.33774 6.13081,-0.4951 0,0 -1.58677,0.98312 -3.26858,1.39997 -3.64145,0.90257 -2.43786,0.79486 -3.8938,4.43315 -1.53436,3.83427 -1.54317,8.76198 -0.0217,12.21283 l 1.13699,2.57893 1.39118,-1.26596 c 0.76516,-0.69626 1.70921,-1.56135 2.09791,-1.92241 2.58019,-2.39681 0.79211,1.39518 -2.16692,4.59539 -1.46895,1.58867 -3.47622,3.92109 -4.46059,5.18314 -2.61044,3.3468 -9.45734,8.73878 -14.11186,11.11317 -8.51588,4.3442 -17.64836,5.93052 -26.99559,4.68918 z"
       id="path1093"
       sodipodi:nodetypes="cssscsssssscssssscscssscc" />
    <path
       style="fill:#e6e6e6;stroke-width:1.17324"
       d="m 97.84456,241.57368 c -4.803629,-1.28949 -9.555253,-2.87768 -10.559169,-3.52925 -2.075445,-1.3471 -0.497843,-1.03904 11.080354,2.16353 12.632255,3.49423 30.948185,2.47704 45.756395,-2.54102 1.4612,-0.49518 1.22837,-0.14102 -0.61714,0.93914 -9.58619,5.60986 -30.70449,6.98241 -45.66044,2.9676 z m 3.58558,-9.26431 c -7.175893,-1.51569 -7.60955,-2.52337 -0.62519,-1.45281 7.22966,1.10818 23.84212,1.14543 31.58478,0.071 4.63796,-0.64369 5.25209,-0.55668 2.9331,0.41549 -3.94362,1.6535 -27.46437,2.3242 -33.89269,0.96641 z m -9.737204,-3.12914 c 0.846932,-0.33879 1.858852,-0.29711 2.248711,0.0927 0.389864,0.38978 -0.303084,0.66714 -1.539876,0.61619 -1.36676,-0.0563 -1.644769,-0.33435 -0.708835,-0.70882 z m 5.114765,-7.65467 c -9.657321,-1.75797 -6.572204,-2.17453 5.728479,-0.77343 6.09494,0.69424 16.36129,0.98885 22.8141,0.65468 6.74435,-0.34942 10.236,-0.21107 8.21269,0.32504 -4.91298,1.30191 -29.21948,1.16546 -36.755269,-0.2062 z m 41.814869,-1.73128 c 0.84694,-0.33878 1.85886,-0.29709 2.24872,0.0927 0.38986,0.38977 -0.30308,0.66714 -1.53988,0.61619 -1.36676,-0.0563 -1.64477,-0.33435 -0.70884,-0.70883 z"
       id="path1142" />
    <path
       style="fill:#cccccc;fill-opacity:0.281501;stroke-width:0.973307"
       d="m 93.767563,238.63274 c -1.94409,-3.63259 3.08543,-10.91008 10.698967,-15.48094 5.13284,-3.08153 14.32835,-2.85132 20.51064,0.5135 7.85868,4.27723 12.65351,13.60656 8.36538,16.27656 -1.47645,0.91933 -2.06242,0.71539 -3.40657,-1.18563 -5.26878,-7.45149 -8.48564,-10.0602 -13.0381,-10.57334 -2.491,-0.28068 -5.64205,-0.23102 -7.00238,0.11036 -2.99441,0.75155 -9.32219,6.13009 -9.32219,7.92376 0,1.69358 -2.695667,4.34856 -4.415177,4.34856 -0.74588,0 -1.82166,-0.86974 -2.39057,-1.93276 z"
       id="path1063-6"
       sodipodi:nodetypes="sssssccssss" />
  </g>
</svg>
