<?xml version="1.0" encoding="UTF-8" standalone="no"?>
<svg
   xmlns:dc="http://purl.org/dc/elements/1.1/"
   xmlns:cc="http://creativecommons.org/ns#"
   xmlns:rdf="http://www.w3.org/1999/02/22-rdf-syntax-ns#"
   xmlns:svg="http://www.w3.org/2000/svg"
   xmlns="http://www.w3.org/2000/svg"
   xmlns:sodipodi="http://sodipodi.sourceforge.net/DTD/sodipodi-0.dtd"
   xmlns:inkscape="http://www.inkscape.org/namespaces/inkscape"
   width="102.9137mm"
   height="94.62323mm"
   viewBox="0 0 102.9137 94.62323"
   version="1.1"
   id="svg991"
   inkscape:version="1.0.1 (3bc2e813f5, 2020-09-07)"
   sodipodi:docname="418.svg">
  <defs
     id="defs985" />
  <sodipodi:namedview
     id="base"
     pagecolor="#ffffff"
     bordercolor="#666666"
     borderopacity="1.0"
     inkscape:pageopacity="0.0"
     inkscape:pageshadow="2"
     inkscape:zoom="0.7"
     inkscape:cx="-70.204799"
     inkscape:cy="143.78514"
     inkscape:document-units="mm"
     inkscape:current-layer="layer1"
     inkscape:document-rotation="0"
     showgrid="false"
     inkscape:window-width="2560"
     inkscape:window-height="1377"
     inkscape:window-x="1912"
     inkscape:window-y="-8"
     inkscape:window-maximized="1" />
  <metadata
     id="metadata988">
    <rdf:RDF>
      <cc:Work
         rdf:about="">
        <dc:format>image/svg+xml</dc:format>
        <dc:type
           rdf:resource="http://purl.org/dc/dcmitype/StillImage" />
        <dc:title></dc:title>
      </cc:Work>
    </rdf:RDF>
  </metadata>
  <g
     inkscape:label="Ebene 1"
     inkscape:groupmode="layer"
     id="layer1"
     transform="translate(-67.152327,-61.469516)">
    <path
       style="fill:#000000;stroke-width:0.732232"
       d="m 105.64716,154.76458 c -5.26172,-1.42081 -5.35551,-1.46813 -10.722376,-5.41029 -3.92538,-2.88334 -6.51398,-5.8608 -8.57585,-9.86412 -0.67208,-1.3049 -2.45081,-3.00276 -3.95275,-3.77295 -5.843207,-2.9965 -7.243476,-6.10171 -7.901226,-17.52175 -0.522697,-9.07483 -1.211636,-11.78357 -3.770378,-14.82446 -1.02234,-1.21496 -1.685459,-2.38235 -1.473607,-2.5942 0.211713,-0.21171 1.923989,-0.848258 3.804778,-1.414298 3.278455,-0.986658 3.489421,-0.95937 5.110149,0.661348 0.929794,0.9298 2.775074,4.54569 4.100624,8.03536 1.32554,3.48965 2.73373,6.34481 3.12929,6.34481 0.39555,0 1.84937,-1.32034 3.23068,-2.93409 1.38132,-1.61376 3.96657,-3.78685 5.74504,-4.82908 1.92167,-1.12621 3.23357,-2.42914 3.23357,-3.21157 0,-0.72409 0.5212,-1.51653 1.15825,-1.76098 1.511436,-0.58002 39.373786,-0.58002 40.885226,0 0.63705,0.24437 1.15825,1.22107 1.15825,2.17029 0,1.72338 4.358,5.43979 6.37888,5.43979 0.50233,0 0.44334,0.31714 2.64079,-1.95159 3.96836,-4.09711 6.28773,-6.29596 9.89266,-5.94958 7.10424,0.68263 10.29901,5.0654 10.34628,14.19359 0.067,12.90543 -5.54783,21.52816 -16.70813,25.65945 -1.86867,0.69174 -5.2498,2.92931 -7.51361,4.97238 -6.67932,6.02796 -9.26222,7.58634 -14.57755,8.79529 -6.8209,1.55138 -19.43508,1.4365 -25.61899,-0.2333 z M 160.83884,132.473 c 5.37159,-4.09714 7.94422,-15.30324 5.02712,-21.89779 -1.99572,-4.51165 -4.42063,-6.09903 -7.64077,-5.00175 -3.69591,1.25943 -6.06148,4.57297 -6.17979,10.356 0.43248,-0.26214 2.39972,7.78397 1.23768,19.85312 0,0 5.69597,-1.89108 7.55576,-3.30958 z"
       id="path1007"
       sodipodi:nodetypes="csscsssssssscsccsssscscscccssccc" />
    <path
       style="fill:#000000;stroke-width:0.264583"
       d="m 71.289671,95.996326 c 0.215488,-2.698581 -0.162856,-4.234111 -2.01479,-8.177136 -0.8583,-1.827437 -1.687425,-3.798864 -1.842502,-4.380947 -0.459917,-1.72631 -0.343721,-4.185691 0.277668,-5.877054 0.537854,-1.463992 1.750618,-3.407322 1.981995,-3.175945 0.06044,0.06044 -0.02421,1.01143 -0.188092,2.113322 -0.408519,2.746689 0.08576,5.032457 1.967533,9.098716 1.718815,3.714132 2.224404,5.983783 1.787138,8.022684 -0.292164,1.362313 -0.969126,2.876163 -1.7177,3.841194 -0.378075,0.487397 -0.397907,0.371774 -0.25125,-1.464834 z M 74.148477,84.76116 c 0.358258,-2.415098 0.377184,-3.11261 0.122884,-4.528939 -0.160093,-0.891641 -0.962234,-2.969162 -1.877927,-4.86377 -2.581623,-5.341493 -2.852542,-8.070794 -1.142456,-11.509376 0.74401,-1.49603 1.893112,-3.025521 1.590245,-2.116667 -0.09699,0.291042 -0.242252,1.541198 -0.322812,2.778126 -0.184078,2.826335 0.263039,4.688794 2.032578,8.466667 1.599202,3.414211 1.946814,4.769908 1.813468,7.072568 -0.104782,1.809392 -0.726355,3.470661 -1.808549,4.833682 l -0.525176,0.661459 z"
       id="path1023" />
  </g>
</svg>
