<?xml version="1.0" encoding="UTF-8" standalone="no"?>
<svg
   xmlns:dc="http://purl.org/dc/elements/1.1/"
   xmlns:cc="http://creativecommons.org/ns#"
   xmlns:rdf="http://www.w3.org/1999/02/22-rdf-syntax-ns#"
   xmlns:svg="http://www.w3.org/2000/svg"
   xmlns="http://www.w3.org/2000/svg"
   xmlns:sodipodi="http://sodipodi.sourceforge.net/DTD/sodipodi-0.dtd"
   xmlns:inkscape="http://www.inkscape.org/namespaces/inkscape"
   width="29.58984mm"
   height="25.116154mm"
   viewBox="0 0 29.58984 25.116154"
   version="1.1"
   id="svg63"
   inkscape:version="1.0.1 (3bc2e813f5, 2020-09-07)"
   sodipodi:docname="hidden_icon.svg">
  <defs
     id="defs57" />
  <sodipodi:namedview
     id="base"
     pagecolor="#ffffff"
     bordercolor="#666666"
     borderopacity="1.0"
     inkscape:pageopacity="0.0"
     inkscape:pageshadow="2"
     inkscape:zoom="7.9195959"
     inkscape:cx="55.399897"
     inkscape:cy="54.952946"
     inkscape:document-units="mm"
     inkscape:current-layer="svg63"
     inkscape:document-rotation="0"
     showgrid="false"
     inkscape:window-width="2560"
     inkscape:window-height="1377"
     inkscape:window-x="1912"
     inkscape:window-y="-8"
     inkscape:window-maximized="1" />
  <metadata
     id="metadata60">
    <rdf:RDF>
      <cc:Work
         rdf:about="">
        <dc:format>image/svg+xml</dc:format>
        <dc:type
           rdf:resource="http://purl.org/dc/dcmitype/StillImage" />
        <dc:title></dc:title>
      </cc:Work>
    </rdf:RDF>
  </metadata>
  <path
     style="fill:#ffffff;stroke-width:0.264583"
     d="M 3.53204,24.46107 2.74195,23.81551 3.94747,22.55236 C 5.03876,21.40888 9.16356,16.95075 18.4578,6.86941 20.26896,4.90488 22.45082,2.55559 23.30638,1.64877 L 24.86196,0 25.64278,0.57729 c 0.42946,0.3175 0.74909,0.65877 0.7103,0.75836 -0.11658,0.2993 -21.74322,23.79079 -21.89271,23.7805 -0.076,-0.005 -0.49378,-0.30002 -0.92833,-0.65508 z m 8.15068,-3.64301 c -1.45227,-0.42358 -1.51772,-0.52365 -0.78973,-1.20757 0.596,-0.55991 0.65295,-0.56486 1.78489,-0.15503 3.53407,1.27952 8.0157,-1.05709 9.11272,-4.75116 0.5286,-1.78001 0.49261,-2.77642 -0.16942,-4.6894 l -0.56033,-1.61913 0.94199,-0.94199 0.942,-0.942 1.1359,0.77413 c 1.49854,1.02126 5.5091,4.85925 5.5091,5.27204 0,0.53485 -4.36354,4.55455 -6.28187,5.78686 -2.90389,1.86543 -5.03862,2.58684 -7.98749,2.6993 -1.50725,0.0575 -2.97925,-0.034 -3.63776,-0.22605 z M 4.26071,16.78448 C 3.0738,15.83484 1.62958,14.50437 1.05134,13.82789 L 0,12.59792 0.68692,11.69732 C 1.71483,10.34966 5.1508,7.48676 7.10026,6.35363 c 3.5989,-2.09187 6.80981,-2.76718 10.15558,-2.13588 0.96287,0.18168 1.75067,0.41746 1.75067,0.52395 0,0.10649 -0.23561,0.40684 -0.52358,0.66745 -0.46752,0.4231 -0.65239,0.43776 -1.72666,0.13699 -3.21583,-0.90038 -6.76321,0.71097 -8.41589,3.82282 -0.7388,1.39109 -0.81047,4.86541 -0.12634,6.12459 l 0.44494,0.81893 -1.12012,1.09932 -1.12013,1.09932 z m 9.45413,-0.093 c 0,-0.25157 4.69819,-5.40189 5.05497,-5.54142 0.33478,-0.13094 0.57837,1.17929 0.39734,2.1372 -0.25382,1.34303 -1.1026,2.50782 -2.25639,3.09644 -1.05801,0.53976 -3.19592,0.74565 -3.19592,0.30778 z m -3.1689,-4.02829 c -0.0102,-2.47338 1.52947,-4.17731 3.98801,-4.41355 L 15.92165,8.1163 15.3487,8.8819 c -0.31513,0.42108 -1.52329,1.77763 -2.68481,3.01456 l -2.11185,2.24895 -0.006,-1.48222 z"
     id="path79" />
</svg>
