<?xml version="1.0" encoding="UTF-8" standalone="no"?>
<svg
   xmlns:dc="http://purl.org/dc/elements/1.1/"
   xmlns:cc="http://creativecommons.org/ns#"
   xmlns:rdf="http://www.w3.org/1999/02/22-rdf-syntax-ns#"
   xmlns:svg="http://www.w3.org/2000/svg"
   xmlns="http://www.w3.org/2000/svg"
   xmlns:sodipodi="http://sodipodi.sourceforge.net/DTD/sodipodi-0.dtd"
   xmlns:inkscape="http://www.inkscape.org/namespaces/inkscape"
   width="52.656689mm"
   height="28.577511mm"
   viewBox="0 0 52.656689 28.577511"
   version="1.1"
   id="svg8"
   inkscape:version="1.0.2 (e86c870879, 2021-01-15, custom)"
   sodipodi:docname="myf_logo_scmall.svg">
  <defs
     id="defs2" />
  <sodipodi:namedview
     id="base"
     pagecolor="#ffffff"
     bordercolor="#666666"
     borderopacity="1.0"
     inkscape:pageopacity="0.0"
     inkscape:pageshadow="2"
     inkscape:zoom="1.4"
     inkscape:cx="-95.553452"
     inkscape:cy="2.7365298"
     inkscape:document-units="mm"
     inkscape:current-layer="layer1"
     inkscape:document-rotation="0"
     showgrid="false"
     inkscape:window-width="2560"
     inkscape:window-height="1377"
     inkscape:window-x="1912"
     inkscape:window-y="-8"
     inkscape:window-maximized="1" />
  <metadata
     id="metadata5">
    <rdf:RDF>
      <cc:Work
         rdf:about="">
        <dc:format>image/svg+xml</dc:format>
        <dc:type
           rdf:resource="http://purl.org/dc/dcmitype/StillImage" />
        <dc:title></dc:title>
      </cc:Work>
    </rdf:RDF>
  </metadata>
  <g
     inkscape:label="Ebene 1"
     inkscape:groupmode="layer"
     id="layer1"
     transform="translate(-44.015315,-158.57992)">
    <path
       style="fill:#ffffff;stroke-width:0.264583"
       d="m 44.015325,172.8687 v -14.28878 h 26.32834 26.328337 l -0.0684,14.22135 -0.0685,14.22136 -26.259887,0.0674 -26.2599,0.0674 z m 5.027083,4.66994 c 0,-5.55743 -0.04642,-6.21586 -0.463021,-6.5672 -0.315983,-0.26649 -0.715084,-0.33146 -1.25677,-0.2046 -0.436563,0.10224 -0.585391,0.19998 -0.33073,0.21719 0.254662,0.0172 0.463021,0.2184 0.463021,0.44708 0,0.3722 -0.04505,0.37072 -0.429854,-0.0141 -0.23642,-0.23642 -0.682904,-0.39375 -0.992187,-0.34963 -0.553044,0.0789 -0.563506,0.18403 -0.633268,6.36408 l -0.07093,6.28386 h 1.856871 1.856872 z m -1.922639,-4.70405 c 0.179476,-0.18082 0.39297,-0.26212 0.474432,-0.18066 0.08146,0.0815 -0.06538,0.22941 -0.326319,0.32877 -0.377084,0.14359 -0.407475,0.11319 -0.148113,-0.14811 z m -1.084041,-0.36556 c -0.08344,-0.21745 -0.04341,-0.39536 0.08895,-0.39536 0.358657,0 0.581372,0.47019 0.303934,0.64166 -0.132646,0.082 -0.309445,-0.0289 -0.392887,-0.2463 z m 19.318418,10.85791 c -0.08197,-0.21363 -0.04198,-0.45458 0.08887,-0.53545 0.287321,-0.17757 0.357753,-19.4495 0.07107,-19.44808 -0.109896,5.6e-4 -0.427969,0.56609 -0.706828,1.25677 -0.278859,0.69068 -1.052765,2.38688 -1.719792,3.76932 -1.178495,2.4425 -1.215335,2.59501 -1.303337,5.39573 -0.06231,1.98311 0.01443,3.07837 0.246008,3.51108 0.258574,0.48315 0.264232,0.70122 0.02442,0.94104 -0.197346,0.19735 -0.312154,1.26581 -0.312154,2.90507 v 2.59292 h 1.880391 c 1.544524,0 1.853769,-0.0694 1.731347,-0.3884 z m 8.847729,-4.24181 c 0.8445,-2.47386 1.54176,-4.71047 1.54946,-4.97025 0.008,-0.25978 0.19962,-0.75564 0.426507,-1.10191 0.22689,-0.34627 0.4427,-0.91267 0.47959,-1.25866 0.0369,-0.34598 0.14875,-0.76123 0.24859,-0.92277 0.0998,-0.16154 0.83738,-2.20283 1.63898,-4.53619 0.8016,-2.33337 1.52887,-4.42859 1.61616,-4.65604 0.13614,-0.35479 -0.15551,-0.41324 -2.05243,-0.41135 l -2.211117,0.002 -3.68237,10.91185 c -2.0253,6.00152 -3.73662,11.06574 -3.80293,11.25381 -0.0936,0.26557 0.36809,0.32467 2.06677,0.26458 l 2.18732,-0.0774 1.53547,-4.49791 z m -3.1329,3.66123 c -0.46069,-0.18589 -0.41442,-0.61852 0.0661,-0.61852 0.21828,0 0.39688,0.17859 0.39688,0.39687 0,0.21828 -0.0298,0.38748 -0.0661,0.37599 -0.0364,-0.0115 -0.21497,-0.0809 -0.39687,-0.15434 z m 3.65661,-7.03467 c -0.0102,-0.25466 -0.13766,-0.46302 -0.28318,-0.46302 -0.40243,0 -0.31577,-0.71749 0.10622,-0.87943 0.45344,-0.174 0.68258,0.5585 0.40058,1.28053 -0.17473,0.44738 -0.20777,0.45653 -0.22362,0.0619 z m -1.19221,-2.12808 c 0.0994,-0.26093 0.24731,-0.40778 0.32877,-0.32632 0.0815,0.0815 1.7e-4,0.29496 -0.18065,0.47444 -0.26131,0.25936 -0.2917,0.22897 -0.14812,-0.14812 z m 1.30858,-0.72051 c 0.0914,-0.14789 0.27702,-0.2004 0.41249,-0.11667 0.36698,0.22681 0.29855,0.38557 -0.16619,0.38557 -0.22687,0 -0.33771,-0.121 -0.2463,-0.2689 z m 0.12962,-0.78943 c 0,-0.14552 0.12609,-0.26458 0.2802,-0.26458 0.15411,0 0.20661,0.11906 0.11667,0.26458 -0.0899,0.14552 -0.21602,0.26458 -0.28019,0.26458 -0.0642,0 -0.11668,-0.11906 -0.11668,-0.26458 z m -1.4186,-0.39688 c -0.0838,-0.21828 -0.037,-0.39687 0.10399,-0.39687 0.14095,0 0.25628,0.17859 0.25628,0.39687 0,0.21829 -0.0468,0.39688 -0.10399,0.39688 -0.0572,0 -0.17251,-0.17859 -0.25628,-0.39688 z m 0.72591,-1.24115 c -0.10711,-0.17331 -0.0546,-0.36183 0.11668,-0.41892 0.17128,-0.0571 0.31505,-0.30225 0.31947,-0.54479 0.008,-0.4111 0.0255,-0.41115 0.26501,-6.8e-4 0.45797,0.78471 -0.22859,1.72903 -0.70116,0.96439 z m 1.894617,-2.31244 c -0.0837,-0.13546 -0.0437,-0.31337 0.0889,-0.39535 0.13264,-0.082 0.30944,0.0288 0.39288,0.2463 0.16449,0.42865 -0.23303,0.55163 -0.48183,0.14905 z m -0.805057,-1.87036 c 0.0899,-0.14552 0.21603,-0.26459 0.2802,-0.26459 0.0642,0 0.11668,0.11907 0.11668,0.26459 0,0.14552 -0.12609,0.26458 -0.2802,0.26458 -0.15411,0 -0.20661,-0.11906 -0.11668,-0.26458 z m 1.190627,-0.63315 c 0,-0.0572 0.18478,-0.17489 0.41062,-0.26156 0.23546,-0.0904 0.34166,-0.046 0.24897,0.10399 -0.15538,0.25141 -0.65959,0.37186 -0.65959,0.15757 z m 1.20062,-1.99652 c -0.0766,-0.12391 0.0349,-0.29211 0.24764,-0.37376 0.21278,-0.0817 0.44954,-0.0471 0.52612,0.0768 0.0766,0.12392 -0.0349,0.29211 -0.24764,0.37377 -0.21278,0.0817 -0.44954,0.0471 -0.52612,-0.0768 z m -1.33291,-0.80992 c -0.0899,-0.14552 -0.0374,-0.26458 0.11667,-0.26458 0.15411,0 0.2802,0.11906 0.2802,0.26458 0,0.14552 -0.0525,0.26459 -0.11667,0.26459 -0.0642,0 -0.19026,-0.11907 -0.2802,-0.26459 z m 9.80786,20.60792 c 0.1,-0.16179 0.0177,-0.39809 -0.18282,-0.52511 -0.21014,-0.1331 -0.23839,-0.23267 -0.0667,-0.23501 0.4091,-0.006 0.4738,-3.91796 0.0728,-4.40117 -0.22113,-0.26644 -0.22282,-0.36538 -0.006,-0.36538 0.16396,0 0.29698,-0.42179 0.29698,-0.94165 0,-0.51791 -0.10658,-0.87579 -0.23686,-0.79527 -0.13027,0.0805 -0.30513,-0.0315 -0.38857,-0.24897 -0.0922,-0.24015 8.3e-4,-0.39536 0.23686,-0.39536 0.28338,0 0.38857,-0.3181 0.38857,-1.17501 0,-0.64625 -0.11906,-1.24859 -0.26458,-1.33853 -0.14552,-0.0899 -0.26458,-0.0374 -0.26458,0.11668 0,0.49078 -0.46204,0.30091 -0.60583,-0.24897 -0.12457,-0.47634 -0.0224,-0.57783 0.5101,-0.50657 0.44465,0.0595 0.59786,-0.92664 0.58838,-3.78733 -0.006,-1.71294 -0.11884,-3.11443 -0.25149,-3.11443 -0.13264,0 -0.24116,0.11906 -0.24116,0.26458 0,0.14552 -0.23813,0.26458 -0.52917,0.26458 -0.82002,0 -0.62396,-0.44406 0.27548,-0.62395 0.77371,-0.15474 0.80213,-0.20942 0.73909,-1.42213 -0.0361,-0.69367 -0.17459,-1.41004 -0.30787,-1.59194 -0.15539,-0.21207 -0.13578,-0.33073 0.0547,-0.33073 0.16334,0 0.29698,-0.17859 0.29698,-0.39687 0,-0.28632 -0.29342,-0.39688 -1.05329,-0.39688 -0.8869,0 -1.07811,0.0989 -1.21039,0.62592 -0.0864,0.34425 -0.11843,0.84744 -0.0712,1.1182 0.0599,0.34309 -0.0745,0.49419 -0.44326,0.49856 -0.42038,0.005 -0.51168,0.15586 -0.44409,0.73389 0.0468,0.40018 -0.0425,0.7276 -0.19843,0.7276 -0.15594,0 -0.28352,0.12609 -0.28352,0.2802 0,0.15411 0.11906,0.20661 0.26458,0.11667 0.14552,-0.0899 0.26458,-0.0275 0.26458,0.13873 0,0.16624 0.1479,0.25295 0.32866,0.19269 0.48053,-0.16017 0.9785,0.90026 0.63293,1.34784 -0.20138,0.26081 -0.15436,0.42392 0.17539,0.60846 0.24779,0.13866 0.45052,0.43868 0.45052,0.66671 0,0.26692 0.1674,0.37081 0.47,0.29168 0.36199,-0.0947 0.46337,0.0284 0.44117,0.53561 -0.0159,0.36219 -0.22558,0.80239 -0.46606,0.97823 -0.52897,0.3868 -0.72864,1.6203 -0.24667,1.52391 0.1819,-0.0364 0.33073,0.0529 0.33073,0.19844 0,0.3794 -0.41331,0.3261 -0.76592,-0.0988 -0.16585,-0.19984 -0.22722,-0.55702 -0.13638,-0.79375 0.0912,-0.23775 0.0341,-0.43041 -0.12773,-0.43041 -0.16109,0 -0.29289,0.23812 -0.29289,0.52917 0,0.29104 -0.12708,0.52916 -0.28241,0.52916 -0.1652,0 -0.21026,-0.22733 -0.10857,-0.54773 0.13228,-0.41678 0.0391,-0.58296 -0.38962,-0.69508 -0.47959,-0.12542 -0.51266,-0.21127 -0.22216,-0.57675 0.46048,-0.57933 1.00369,-1.56646 0.99871,-1.81487 -0.002,-0.11111 -0.11946,-0.0234 -0.26053,0.19485 -0.17099,0.26458 -0.25783,0.28663 -0.26053,0.0661 -0.002,-0.18191 -0.13585,-0.33073 -0.29694,-0.33073 -0.16109,0 -0.22568,0.17514 -0.14354,0.38921 0.0822,0.21407 -0.0181,0.55669 -0.22279,0.76137 -0.26881,0.26881 -0.36588,1.03723 -0.34956,2.76706 l 0.0226,2.39491 0.75334,-0.0214 c 0.64356,-0.0183 0.69142,-0.0667 0.32838,-0.33217 -0.45715,-0.33427 -0.29121,-1.46105 0.21518,-1.46105 0.15128,0 0.20596,0.18007 0.12151,0.40015 -0.1172,0.3054 -0.0143,0.36534 0.43471,0.25314 0.52509,-0.13121 0.5934,-0.0392 0.6361,0.85663 0.0459,0.96333 0.0371,0.97441 -0.22049,0.27602 -0.14757,-0.40018 -0.45157,-0.7276 -0.67554,-0.7276 -0.32543,0 -0.34338,0.0769 -0.0893,0.38302 0.22806,0.27479 0.23948,0.51776 0.0404,0.85989 -0.1691,0.29066 -0.28058,0.34054 -0.28548,0.12775 -0.005,-0.20918 -0.24669,-0.31524 -0.60336,-0.26459 -0.58451,0.083 -0.59551,0.15201 -0.60608,3.80273 -0.01,3.36686 0.0333,3.7215 0.45588,3.75333 0.3569,0.0269 0.44719,-0.13196 0.38392,-0.67547 -0.0686,-0.58894 0.0264,-0.71735 0.55431,-0.7499 0.46386,-0.0286 0.59594,0.0678 0.48588,0.35461 -0.0831,0.21663 -0.0871,0.4975 -0.009,0.62415 0.18199,0.29446 1.18232,-0.55016 1.18232,-0.99828 0,-0.18594 0.11907,-0.33808 0.26459,-0.33808 0.45565,0 0.28847,0.77435 -0.23819,1.10325 -0.27652,0.17269 -0.44711,0.459 -0.3791,0.63625 0.068,0.17725 -0.1217,0.49413 -0.42159,0.70418 -0.29989,0.21005 -0.46767,0.4595 -0.37285,0.55432 0.0948,0.0948 0.35505,0.0246 0.57828,-0.15602 0.2727,-0.22068 0.34525,-0.22734 0.22113,-0.0203 -0.1016,0.16947 -0.0352,0.36844 0.14765,0.44214 0.53265,0.21474 0.68675,0.19401 0.87982,-0.11839 z m -1.04058,-5.92506 c -0.0922,-0.24015 8.2e-4,-0.39536 0.23685,-0.39536 0.42794,0 0.52529,0.41345 0.15172,0.64433 -0.13027,0.0805 -0.30513,-0.0315 -0.38857,-0.24897 z m 0.0963,-10.44952 c -0.23847,-0.15411 -0.2711,-0.2581 -0.0818,-0.26054 0.17331,-0.002 0.3887,0.11502 0.47863,0.26054 0.20302,0.32848 0.11143,0.32848 -0.39687,0 z m 0.13229,-2.64584 c -0.0899,-0.14552 0.0291,-0.26458 0.26458,-0.26458 0.23546,0 0.35453,0.11906 0.26459,0.26458 -0.0899,0.14552 -0.209,0.26459 -0.26459,0.26459 -0.0556,0 -0.17464,-0.11907 -0.26458,-0.26459 z m -0.66146,-1.32291 c 0,-0.14552 0.18562,-0.26459 0.41249,-0.26459 0.22687,0 0.33891,0.11907 0.24897,0.26459 -0.0899,0.14552 -0.27556,0.26458 -0.41249,0.26458 -0.13693,0 -0.24897,-0.11906 -0.24897,-0.26458 z m -1.47728,19.74932 c -0.17011,-0.44328 -0.63938,-0.60701 -0.63938,-0.22307 0,0.2574 0.59027,0.87375 0.71619,0.74783 0.0495,-0.0495 0.0149,-0.28565 -0.0768,-0.52476 z M 54.338219,172.52209 c -0.441739,-0.97424 -0.933778,-1.77134 -1.093419,-1.77134 -0.159641,0 -0.229003,-0.15962 -0.154137,-0.35472 0.291502,-0.75964 -0.21117,-0.99394 -1.139185,-0.53099 -0.490326,0.24461 -1.212026,0.44474 -1.603777,0.44474 -0.701134,0 -0.706646,0.0135 -0.352416,0.86126 0.197921,0.4737 1.070966,2.36135 1.940099,4.19478 0.869133,1.83343 1.913221,4.07516 2.320195,4.98162 l 0.739954,1.6481 0.07292,-3.85106 c 0.07187,-3.79552 0.06134,-3.8766 -0.730238,-5.62239 z m 3.527422,5.49537 c 0.937701,-2.03216 2.305746,-4.94499 3.0401,-6.47296 1.301102,-2.7072 1.320381,-2.78192 0.755198,-2.92679 -0.558728,-0.14322 -0.554986,-0.15511 0.102079,-0.32434 0.678775,-0.17483 1.463527,-1.51721 3.326448,-5.69018 l 0.625304,-1.40069 -1.903316,0.0778 -1.903316,0.0778 -1.399852,2.98715 c -1.224441,2.61283 -1.342575,3.00516 -0.942761,3.13095 0.251401,0.0791 0.695217,0.24034 0.986258,0.35831 0.492833,0.19978 0.496698,0.22771 0.05629,0.40687 -0.29599,0.1204 -0.652941,0.0294 -0.954251,-0.24328 -0.433636,-0.39243 -0.515117,-0.39498 -0.821599,-0.0257 -0.187123,0.22547 -0.267625,0.48254 -0.178895,0.57127 0.08873,0.0887 -0.06624,0.45064 -0.344388,0.80424 -0.279601,0.35546 -0.433072,0.83222 -0.343245,1.06631 0.09895,0.25786 0.05444,0.35662 -0.113851,0.25262 -0.16055,-0.0992 -0.622802,0.60411 -1.103296,1.67871 -0.804514,1.79926 -0.826975,1.95483 -0.826975,5.72772 0,2.13303 0.05381,3.82442 0.119577,3.75865 0.06577,-0.0658 0.886787,-1.78225 1.824489,-3.81441 z m 2.289267,-8.58962 c -0.352777,-0.22799 -0.352777,-0.25648 0,-0.25648 0.218282,0 0.575469,0.11541 0.79375,0.25648 0.352778,0.22798 0.352778,0.25648 0,0.25648 -0.218281,0 -0.575468,-0.11542 -0.79375,-0.25648 z m 34.312914,2.57968 c 0.0288,-1.04206 -0.0603,-1.78593 -0.21405,-1.78593 -0.14489,0 -0.19249,-0.11479 -0.10579,-0.25508 0.097,-0.15702 -0.7106,-0.24239 -2.10105,-0.22209 -1.24228,0.0181 -2.25869,0.12544 -2.25869,0.23844 0,0.113 -0.43523,0.13483 -0.96718,0.0485 -0.69537,-0.11285 -0.91405,-0.071 -0.77814,0.14892 0.10398,0.16823 0.0729,0.30588 -0.0691,0.30588 -0.14199,0 -0.31131,-0.14883 -0.37627,-0.33073 -0.065,-0.1819 -0.21092,-0.24431 -0.32434,-0.13868 -0.11342,0.10562 -0.0644,0.36291 0.10892,0.57175 0.2148,0.25882 0.2268,0.43431 0.0377,0.55118 -0.44332,0.27399 -0.34282,1.72773 0.11945,1.72773 0.46608,0 0.51388,0.30632 0.11073,0.70948 -0.20515,0.20514 0.7124,0.2763 3.24114,0.25136 l 3.52729,-0.0348 z m -5.58861,0.51776 c 0.0994,-0.26094 0.2473,-0.40778 0.32876,-0.32632 0.0815,0.0815 1.7e-4,0.29496 -0.18065,0.47443 -0.26131,0.25936 -0.2917,0.22897 -0.14811,-0.14811 z m 3.88559,-1.67951 c -0.83665,-0.90346 -0.74221,-0.98879 0.32745,-0.29589 0.94073,0.60938 1.19307,1.0169 0.59859,0.96669 -0.1819,-0.0154 -0.59862,-0.31723 -0.92604,-0.6708 z m -4.56406,0.16957 c 0,-0.14552 0.11906,-0.26459 0.26458,-0.26459 0.14552,0 0.26458,0.11907 0.26458,0.26459 0,0.14552 -0.11906,0.26458 -0.26458,0.26458 -0.14552,0 -0.26458,-0.11906 -0.26458,-0.26458 z m -15.373977,-3.3073 c 0.88173,-2.12059 0.92982,-2.84802 0.31119,-4.70701 l -0.59077,-1.77528 h -2.0951 c -1.1523,0 -2.09509,0.10551 -2.09509,0.23445 0,0.23963 2.42193,7.4611 2.98146,8.88984 l 0.30936,0.78992 0.42446,-1.31908 c 0.23345,-0.7255 0.57297,-1.67627 0.75449,-2.11284 z m -2.04456,-4.86202 c -0.28152,-0.17845 -0.26377,-0.25792 0.0878,-0.39282 0.61563,-0.23624 0.66201,-0.22029 0.66201,0.22776 0,0.44541 -0.22826,0.49566 -0.74979,0.16506 z m -23.133891,7.15649 c 0.627655,-0.18906 0.825169,-0.70697 0.269615,-0.70697 -0.181901,0 -0.503989,-0.16475 -0.715751,-0.36612 -0.32983,-0.31364 -0.438756,-0.28519 -0.759876,0.19844 -0.20617,0.31051 -0.538925,0.56456 -0.739457,0.56456 -0.200532,0 -0.364603,0.22981 -0.364603,0.5107 0,0.4545 0.09462,0.48134 0.859895,0.24394 0.472943,-0.14671 1.125522,-0.34676 1.450177,-0.44455 z m 37.158158,-0.21881 c 0.62206,-0.56295 0.61091,-0.76285 -0.0453,-0.81228 -0.29104,-0.0219 -0.52916,0.0788 -0.52916,0.22389 0,0.14507 -0.10796,0.19703 -0.23991,0.11548 -0.13195,-0.0815 -0.1776,0.09 -0.10143,0.38126 0.16819,0.64316 0.29264,0.65562 0.91582,0.0917 z M 51.13889,169.11781 c 1.359676,-0.31385 1.65073,-0.69279 0.967584,-1.25975 -0.291697,-0.24209 -0.424578,-0.2301 -0.595312,0.0537 -0.279445,0.46451 -1.133076,0.78812 -1.185525,0.44944 -0.121368,-0.78373 -0.03212,-0.89933 0.701146,-0.90817 0.436563,-0.005 0.769679,-0.14131 0.740258,-0.30234 -0.02942,-0.16102 -0.646733,-1.56 -1.371806,-3.10885 l -1.318314,-2.81609 h -1.737048 c -1.066086,0 -1.737048,0.11024 -1.737048,0.2854 0,0.33342 2.051831,4.86113 2.598431,5.73387 0.205065,0.32743 0.523167,0.59532 0.706893,0.59532 0.183727,0 0.482269,0.17859 0.663426,0.39687 0.27492,0.33126 0.237905,0.39688 -0.223882,0.39688 -0.383085,0 -0.506416,0.12207 -0.400965,0.39687 0.183458,0.47808 0.451279,0.4887 2.192162,0.0868 z m -4.388009,-1.08747 0.751181,-0.60112 -1.059118,-2.24184 -1.059117,-2.24184 -0.02279,2.84428 c -0.02504,3.12445 0.07789,3.29039 1.389847,2.24052 z m 36.868101,-1.56253 c -0.0845,-0.21107 -0.14716,-0.14837 -0.15985,0.15985 -0.0115,0.27892 0.051,0.43519 0.13896,0.34727 0.0879,-0.0879 0.0973,-0.31612 0.0209,-0.50712 z m -0.56337,0.0266 c 0.0978,-0.1582 0.0612,-0.4042 -0.0812,-0.54666 -0.16896,-0.16896 -0.30871,-0.069 -0.40196,0.28764 -0.15023,0.57449 0.17913,0.75103 0.48321,0.25902 z m 8.85334,-1.38897 c 0.003,-0.22755 0.0547,-0.22941 0.19844,-0.007 0.11153,0.17249 0.81468,0.28527 1.6496,0.26458 l 1.4552,-0.0361 0.0771,-2.03809 0.077,-2.03809 -3.11976,0.0204 c -1.99992,0.0131 -3.18954,0.12731 -3.31415,0.3183 -0.13813,0.21171 -0.19556,0.20222 -0.19844,-0.0328 -0.002,-0.19019 -0.34135,-0.33073 -0.7978,-0.33073 h -0.79375 v 1.94028 c 0,1.06715 0.0718,2.01211 0.15962,2.0999 0.31188,0.31187 4.60268,0.16236 4.60693,-0.16053 z m -4.08808,-1.15626 c -0.14358,-0.37708 -0.11319,-0.40747 0.14812,-0.14811 0.18082,0.17948 0.26211,0.39297 0.18065,0.47443 -0.0815,0.0815 -0.22941,-0.0654 -0.32877,-0.32632 z m 4.49792,-0.94886 c 0.0994,-0.26094 0.2473,-0.40778 0.32876,-0.32632 0.0815,0.0815 1.7e-4,0.29496 -0.18065,0.47443 -0.26131,0.25936 -0.2917,0.22897 -0.14811,-0.14811 z m -9.40972,-0.0704 c 0,-0.22687 -0.11906,-0.33891 -0.26458,-0.24897 -0.14552,0.0899 -0.26459,0.27556 -0.26459,0.41249 0,0.13693 0.11907,0.24897 0.26459,0.24897 0.14552,0 0.26458,-0.18562 0.26458,-0.41249 z m 0.79375,-1.4489 c 0,-0.1404 -0.23813,-0.25528 -0.52917,-0.25528 -0.35582,0 -0.52916,0.17639 -0.52916,0.53848 0,0.45649 0.0806,0.49535 0.52916,0.25527 0.29104,-0.15576 0.52917,-0.39807 0.52917,-0.53847 z"
       id="path24" />
  </g>
</svg>
