<?xml version="1.0" encoding="UTF-8" standalone="no"?>
<svg
   xmlns:dc="http://purl.org/dc/elements/1.1/"
   xmlns:cc="http://creativecommons.org/ns#"
   xmlns:rdf="http://www.w3.org/1999/02/22-rdf-syntax-ns#"
   xmlns:svg="http://www.w3.org/2000/svg"
   xmlns="http://www.w3.org/2000/svg"
   xmlns:sodipodi="http://sodipodi.sourceforge.net/DTD/sodipodi-0.dtd"
   xmlns:inkscape="http://www.inkscape.org/namespaces/inkscape"
   width="19.431559mm"
   height="19.426291mm"
   viewBox="0 0 19.431559 19.426291"
   version="1.1"
   id="svg857"
   inkscape:version="1.0.1 (3bc2e813f5, 2020-09-07)"
   sodipodi:docname="search.svg">
  <defs
     id="defs851" />
  <sodipodi:namedview
     id="base"
     pagecolor="#ffffff"
     bordercolor="#666666"
     borderopacity="1.0"
     inkscape:pageopacity="0.0"
     inkscape:pageshadow="2"
     inkscape:zoom="2.8"
     inkscape:cx="62.099191"
     inkscape:cy="20.067075"
     inkscape:document-units="mm"
     inkscape:current-layer="layer1"
     inkscape:document-rotation="0"
     showgrid="false"
     inkscape:window-width="2560"
     inkscape:window-height="1377"
     inkscape:window-x="1912"
     inkscape:window-y="-8"
     inkscape:window-maximized="1" />
  <metadata
     id="metadata854">
    <rdf:RDF>
      <cc:Work
         rdf:about="">
        <dc:format>image/svg+xml</dc:format>
        <dc:type
           rdf:resource="http://purl.org/dc/dcmitype/StillImage" />
        <dc:title></dc:title>
      </cc:Work>
    </rdf:RDF>
  </metadata>
  <g
     inkscape:label="Ebene 1"
     inkscape:groupmode="layer"
     id="layer1"
     transform="translate(-20.087482,-186.09596)">
    <path
       style="fill:#ffffff;stroke-width:0.0865146"
       d="m 38.439855,205.43005 c 0.531642,-0.18534 1.075541,-0.91779 1.079049,-1.45313 0.0045,-0.69078 -0.0859,-0.80427 -2.872386,-3.60496 l -2.682889,-2.69657 0.264915,-0.46302 c 0.145703,-0.25466 0.392798,-0.83206 0.549099,-1.28311 0.276128,-0.79683 0.28424,-0.86055 0.286164,-2.24757 0.0017,-1.22876 -0.0252,-1.52126 -0.193254,-2.10104 -1.270753,-4.38408 -5.928012,-6.61897 -10.22977,-4.90898 -1.533208,0.60946 -3.261426,2.31564 -3.959217,3.90872 -0.636322,1.45275 -0.772442,3.3706 -0.355204,5.00462 0.630337,2.46857 2.68707,4.55994 5.195572,5.28307 0.820088,0.23641 2.527566,0.32137 3.389705,0.16868 0.753859,-0.13353 1.673087,-0.45614 2.288448,-0.80317 l 0.460027,-0.25943 2.697754,2.68407 c 2.247294,2.2359 2.755538,2.70001 3.043812,2.77953 0.416736,0.11496 0.69216,0.11291 1.038175,-0.008 z m -12.587868,-6.28688 c -2.616459,-0.83524 -4.315713,-3.4926 -3.97689,-6.21921 0.23948,-1.92718 1.371893,-3.55759 3.10027,-4.46365 0.871021,-0.45661 1.536757,-0.60529 2.693426,-0.60151 1.251285,0.004 2.099085,0.25243 3.063211,0.89728 1.700996,1.13769 2.648708,2.88396 2.645471,4.87456 -0.003,1.82057 -0.679118,3.22386 -2.161585,4.48615 -0.594374,0.50609 -1.323455,0.87783 -2.162864,1.10277 -0.852644,0.22848 -2.358577,0.19255 -3.201039,-0.0764 z m 4.39883,-8.34614 0.456507,-0.46224 -0.311256,-0.27329 c -1.447031,-1.27051 -4.082432,-1.26162 -5.625513,0.019 l -0.259543,0.2154 0.467764,0.47652 0.467763,0.47653 0.374803,-0.25787 c 0.206142,-0.14183 0.540689,-0.31667 0.74344,-0.38854 0.398688,-0.14132 1.324866,-0.18153 1.802209,-0.0782 0.373262,0.0808 1.050136,0.41848 1.199521,0.59848 0.06232,0.0751 0.139064,0.13652 0.17055,0.13652 0.03149,0 0.262676,-0.20801 0.513755,-0.46225 z"
       id="path873" />
  </g>
</svg>
