<?xml version="1.0" encoding="UTF-8" standalone="no"?>
<svg
   xmlns:dc="http://purl.org/dc/elements/1.1/"
   xmlns:cc="http://creativecommons.org/ns#"
   xmlns:rdf="http://www.w3.org/1999/02/22-rdf-syntax-ns#"
   xmlns:svg="http://www.w3.org/2000/svg"
   xmlns="http://www.w3.org/2000/svg"
   xmlns:sodipodi="http://sodipodi.sourceforge.net/DTD/sodipodi-0.dtd"
   xmlns:inkscape="http://www.inkscape.org/namespaces/inkscape"
   version="1.1"
   id="svg10"
   xml:space="preserve"
   width="116.5713"
   height="92.053963"
   viewBox="0 0 116.5713 92.053963"
   sodipodi:docname="shopping_cart.svg"
   inkscape:version="1.0.1 (3bc2e813f5, 2020-09-07)"><metadata
     id="metadata16"><rdf:RDF><cc:Work
         rdf:about=""><dc:format>image/svg+xml</dc:format><dc:type
           rdf:resource="http://purl.org/dc/dcmitype/StillImage" /><dc:title></dc:title></cc:Work></rdf:RDF></metadata><defs
     id="defs14"><clipPath
       clipPathUnits="userSpaceOnUse"
       id="clipPath26"><path
         d="M 0,1080 H 1920 V 0 H 0 Z"
         id="path24" /></clipPath></defs><sodipodi:namedview
     pagecolor="#ffffff"
     bordercolor="#666666"
     borderopacity="1"
     objecttolerance="10"
     gridtolerance="10"
     guidetolerance="10"
     inkscape:pageopacity="0"
     inkscape:pageshadow="2"
     inkscape:window-width="1711"
     inkscape:window-height="1102"
     id="namedview12"
     showgrid="false"
     inkscape:zoom="0.41210938"
     inkscape:cx="58.339044"
     inkscape:cy="46.422512"
     inkscape:window-x="556"
     inkscape:window-y="217"
     inkscape:window-maximized="0"
     inkscape:current-layer="g18" /><g
     id="g18"
     inkscape:groupmode="layer"
     inkscape:label="WarenkorbPfad"
     transform="matrix(1.3333333,0,0,-1.3333333,-1221.661,766.42251)"><g
       id="g20"
       style="fill:#ffffff"><g
         id="g22"
         clip-path="url(#clipPath26)"
         style="fill:#ffffff"><g
           id="g28"
           transform="translate(993.1523,547.98)"
           style="fill:#ffffff"><path
             d="m 0,0 c -0.105,-0.408 -0.146,-0.69 -0.25,-0.947 -0.567,-1.406 -1.219,-2.782 -1.701,-4.216 -0.252,-0.749 -0.581,-0.96 -1.355,-0.958 -10.976,0.028 -21.954,0.02 -32.931,0.016 -0.514,0 -1.038,0.009 -1.539,-0.084 -1.244,-0.233 -2.018,-1.096 -2.051,-2.2 -0.031,-1.069 0.652,-1.96 1.848,-2.258 0.553,-0.137 1.149,-0.133 1.725,-0.133 10.269,-0.008 20.537,-0.006 30.807,-0.006 h 1.341 c -0.576,-1.506 -1.132,-2.817 -1.568,-4.168 -0.233,-0.723 -0.54,-0.985 -1.341,-0.982 -10.912,0.031 -21.825,0.021 -32.738,0.021 -0.901,0 -1.806,-0.043 -2.702,0.025 -0.299,0.023 -0.714,0.267 -0.839,0.525 -0.648,1.333 -1.235,2.697 -1.812,4.063 -1.16,2.744 -2.305,5.494 -3.446,8.246 -1.251,3.018 -2.488,6.043 -3.738,9.063 -0.738,1.785 -1.494,3.562 -2.231,5.347 -1.262,3.049 -2.562,6.084 -3.746,9.163 -0.416,1.08 -1.104,1.63 -2.143,1.965 -2.625,0.847 -5.228,1.76 -7.852,2.61 -1.829,0.592 -3.663,1.182 -5.524,1.66 -1.014,0.26 -2.001,-0.086 -2.645,-0.936 -1.017,-1.343 -0.344,-2.976 1.458,-3.579 2.95,-0.987 5.922,-1.911 8.868,-2.911 1.388,-0.471 2.896,-0.665 3.542,-2.43 1.132,-3.096 2.473,-6.116 3.734,-9.164 0.726,-1.756 1.478,-3.502 2.199,-5.26 1.313,-3.201 2.615,-6.406 3.914,-9.612 0.562,-1.386 1.085,-2.787 1.665,-4.165 0.5,-1.19 1.078,-2.347 1.58,-3.536 0.247,-0.588 0.522,-1.212 0.539,-1.827 0.008,-0.261 -0.627,-0.526 -0.943,-0.819 -0.133,-0.125 -0.214,-0.319 -0.288,-0.495 -0.504,-1.201 -0.976,-2.416 -1.503,-3.607 -0.522,-1.181 -1.112,-2.331 -1.64,-3.51 -0.428,-0.955 -0.838,-1.921 -1.201,-2.902 -0.372,-1.006 0.728,-2.374 2.3,-2.415 0.652,-0.016 1.305,-0.002 2.122,-0.002 -0.281,-0.391 -0.454,-0.58 -0.568,-0.8 -0.515,-0.997 -1.274,-1.957 -1.463,-3.017 -0.421,-2.359 0.62,-4.358 2.387,-5.828 2.51,-2.086 5.467,-2.529 8.605,-1.739 2.211,0.557 4.03,1.826 5.025,3.823 1.04,2.087 1.085,4.327 -0.451,6.348 -0.262,0.344 -0.471,0.728 -0.723,1.124 h 17.808 c -0.531,-0.924 -1.248,-1.783 -1.551,-2.769 -1.061,-3.457 0.818,-6.344 3.733,-7.823 2.793,-1.417 5.697,-1.487 8.53,-0.113 2.246,1.088 3.877,2.73 4.209,5.379 0.262,2.095 -0.561,3.778 -2.005,5.41 0.782,0 1.418,-0.04 2.046,0.012 0.535,0.044 1.07,0.161 1.589,0.307 0.847,0.237 1.145,0.916 1.126,1.703 -0.019,0.744 -0.31,1.414 -1.128,1.607 -0.647,0.153 -1.317,0.294 -1.978,0.295 -14.196,0.017 -28.393,0.013 -42.589,0.013 h -1.39 c 0.921,2.116 1.763,4.049 2.599,5.971 0.675,-0.03 1.312,-0.083 1.949,-0.083 13.167,-0.005 26.333,-0.004 39.499,-0.003 0.354,0 0.71,-0.011 1.061,0.019 1.146,0.096 2.076,0.665 2.491,1.693 1.286,3.176 2.463,6.395 3.689,9.596 0.726,1.894 1.473,3.779 2.191,5.676 1.305,3.444 2.591,6.896 3.897,10.34 0.652,1.72 1.353,3.422 1.975,5.153 0.108,0.304 -0.002,0.736 -0.127,1.065 -0.58,1.521 -1.857,1.772 -3.289,1.772 -17.641,-0.006 -35.282,-0.003 -52.923,-0.01 -0.51,-10e-4 -1.029,-0.055 -1.53,-0.156 -1.093,-0.218 -1.781,-0.981 -1.885,-2.015 -0.096,-0.954 0.332,-1.784 1.368,-2.168 0.728,-0.27 1.558,-0.369 2.344,-0.37 C -29.533,9.974 -13.502,9.979 2.53,9.979 H 3.802 C 3.239,8.406 2.771,6.989 2.22,5.605 1.97,4.977 1.525,4.663 0.7,4.665 c -13.424,0.042 -26.848,0.032 -40.272,0.023 -0.574,-10e-4 -1.16,-0.043 -1.721,-0.161 -1.07,-0.225 -1.703,-0.896 -1.813,-1.859 -0.118,-1.025 0.196,-1.89 1.224,-2.236 0.739,-0.249 1.548,-0.413 2.326,-0.414 C -26.775,-0.007 -13.995,0 -1.215,0 Z"
             style="fill:#ffffff;fill-opacity:1;fill-rule:nonzero;stroke:none"
             id="path30" /></g><g
           id="g32"
           transform="translate(949.4463,509.7002)"
           style="fill:#ffffff"><path
             d="M 0,0 C 0.5,0.103 1.029,0.136 1.496,0.322 2.55,0.744 3.37,1.412 3.528,2.646 3.662,3.698 3.471,4.679 2.63,5.356 1.166,6.535 -0.783,6.597 -2.409,5.617 -3.581,4.911 -4.245,3.013 -3.599,2.032 -2.762,0.761 -1.608,-0.015 0,0 m 30.678,0.056 c 1.474,0 2.608,0.434 3.348,1.496 1.053,1.507 0.388,3.614 -1.351,4.337 -1.846,0.766 -3.712,0.594 -5.164,-1.247 -0.612,-0.775 -0.647,-1.816 -0.157,-2.663 0.754,-1.3 1.953,-1.987 3.324,-1.923 M 43.706,38.28 h -1.215 c -12.78,0 -25.56,-0.008 -38.341,0.017 -0.778,0.002 -1.587,0.165 -2.326,0.415 -1.028,0.346 -1.342,1.21 -1.224,2.236 0.11,0.963 0.743,1.634 1.813,1.859 0.561,0.117 1.147,0.16 1.721,0.161 13.424,0.009 26.848,0.019 40.272,-0.023 0.825,-0.003 1.27,0.312 1.52,0.94 0.552,1.384 1.019,2.801 1.582,4.373 h -1.272 c -16.032,0 -32.063,-0.005 -48.094,0.015 -0.786,10e-4 -1.616,0.101 -2.344,0.371 -1.036,0.383 -1.464,1.214 -1.368,2.168 0.104,1.034 0.792,1.796 1.885,2.015 0.501,0.101 1.02,0.155 1.53,0.155 17.641,0.008 35.282,0.004 52.924,0.011 1.431,0 2.708,-0.251 3.288,-1.772 0.125,-0.329 0.235,-0.762 0.127,-1.065 -0.621,-1.731 -1.323,-3.433 -1.975,-5.153 -1.306,-3.444 -2.592,-6.896 -3.896,-10.34 -0.719,-1.897 -1.466,-3.782 -2.192,-5.677 -1.225,-3.2 -2.403,-6.42 -3.689,-9.595 -0.415,-1.028 -1.345,-1.597 -2.491,-1.693 -0.351,-0.03 -0.707,-0.019 -1.061,-0.019 -13.166,-10e-4 -26.332,-0.002 -39.499,0.003 -0.637,0 -1.274,0.052 -1.949,0.083 -0.836,-1.922 -1.678,-3.855 -2.599,-5.971 h 1.39 c 14.196,0 28.393,0.004 42.59,-0.013 0.66,-0.001 1.33,-0.142 1.977,-0.296 0.818,-0.192 1.109,-0.862 1.128,-1.606 C 41.938,9.092 41.639,8.413 40.792,8.176 40.273,8.03 39.738,7.913 39.203,7.869 38.575,7.816 37.939,7.856 37.157,7.856 38.601,6.225 39.424,4.542 39.162,2.447 38.83,-0.202 37.199,-1.844 34.953,-2.933 32.12,-4.307 29.216,-4.236 26.423,-2.819 23.508,-1.34 21.629,1.547 22.69,5.004 22.993,5.99 23.71,6.849 24.241,7.772 H 6.433 C 6.685,7.377 6.895,6.993 7.156,6.648 8.692,4.628 8.647,2.388 7.607,0.301 6.612,-1.696 4.793,-2.965 2.583,-3.522 c -3.139,-0.79 -6.096,-0.347 -8.605,1.739 -1.768,1.47 -2.809,3.469 -2.388,5.828 0.189,1.059 0.948,2.019 1.463,3.017 0.114,0.22 0.287,0.409 0.568,0.799 -0.817,0 -1.47,-0.013 -2.122,0.003 -1.572,0.04 -2.672,1.408 -2.3,2.414 0.363,0.982 0.773,1.948 1.201,2.903 0.528,1.178 1.119,2.329 1.641,3.509 0.526,1.192 0.999,2.407 1.502,3.608 0.074,0.176 0.155,0.37 0.289,0.495 0.315,0.293 0.95,0.558 0.942,0.818 -0.017,0.616 -0.292,1.24 -0.539,1.827 -0.502,1.19 -1.08,2.347 -1.58,3.537 -0.58,1.378 -1.103,2.779 -1.665,4.165 -1.299,3.206 -2.601,6.411 -3.914,9.612 -0.721,1.758 -1.472,3.503 -2.199,5.26 -1.261,3.048 -2.602,6.068 -3.734,9.164 -0.646,1.765 -2.154,1.959 -3.542,2.43 -2.946,1 -5.918,1.924 -8.868,2.911 -1.802,0.603 -2.475,2.235 -1.458,3.579 0.644,0.85 1.631,1.196 2.645,0.936 1.861,-0.478 3.695,-1.068 5.524,-1.66 2.624,-0.851 5.227,-1.764 7.852,-2.61 1.039,-0.335 1.727,-0.885 2.143,-1.965 1.184,-3.079 2.484,-6.114 3.746,-9.163 0.737,-1.785 1.493,-3.563 2.232,-5.347 1.249,-3.02 2.486,-6.045 3.737,-9.063 1.141,-2.752 2.286,-5.502 3.446,-8.246 0.577,-1.367 1.164,-2.73 1.812,-4.063 0.125,-0.258 0.54,-0.502 0.839,-0.525 0.896,-0.069 1.801,-0.025 2.702,-0.025 10.913,0 21.826,0.01 32.738,-0.021 0.801,-0.003 1.108,0.259 1.341,0.982 0.436,1.351 0.992,2.661 1.568,4.168 h -1.341 c -10.27,0 -20.538,-0.002 -30.807,0.006 -0.576,0 -1.172,-0.004 -1.724,0.133 -1.197,0.298 -1.88,1.188 -1.849,2.258 0.033,1.104 0.807,1.967 2.051,2.2 0.501,0.093 1.025,0.084 1.539,0.084 10.977,0.004 21.955,0.012 32.931,-0.016 0.774,-0.002 1.103,0.209 1.355,0.958 0.482,1.433 1.134,2.81 1.701,4.216 0.104,0.256 0.145,0.539 0.25,0.947"
             style="fill:#ffffff;fill-opacity:1;fill-rule:nonzero;stroke:none"
             id="path34" /></g><g
           id="g36"
           transform="translate(980.124,509.7559)"
           style="fill:#ffffff"><path
             d="M 0,0 C -1.371,-0.063 -2.569,0.623 -3.323,1.924 -3.813,2.771 -3.778,3.812 -3.167,4.586 -1.715,6.428 0.151,6.6 1.997,5.833 3.736,5.11 4.401,3.003 3.349,1.496 2.608,0.435 1.475,0 0,0"
             style="fill:#ffffff;fill-opacity:1;fill-rule:nonzero;stroke:none"
             id="path38" /></g><g
           id="g40"
           transform="translate(949.4463,509.7002)"
           style="fill:#ffffff"><path
             d="m 0,0 c -1.608,-0.015 -2.762,0.761 -3.599,2.032 -0.646,0.981 0.018,2.879 1.19,3.585 C -0.783,6.597 1.166,6.535 2.63,5.356 3.471,4.679 3.662,3.698 3.528,2.646 3.37,1.412 2.55,0.744 1.496,0.322 1.029,0.136 0.5,0.103 0,0"
             style="fill:#ffffff;fill-opacity:1;fill-rule:nonzero;stroke:none"
             id="path42" /></g></g></g></g></svg>
