<?xml version="1.0" encoding="UTF-8" standalone="no"?>
<svg
   xmlns:dc="http://purl.org/dc/elements/1.1/"
   xmlns:cc="http://creativecommons.org/ns#"
   xmlns:rdf="http://www.w3.org/1999/02/22-rdf-syntax-ns#"
   xmlns:svg="http://www.w3.org/2000/svg"
   xmlns="http://www.w3.org/2000/svg"
   xmlns:sodipodi="http://sodipodi.sourceforge.net/DTD/sodipodi-0.dtd"
   xmlns:inkscape="http://www.inkscape.org/namespaces/inkscape"
   width="12.935542mm"
   height="12.487488mm"
   viewBox="0 0 12.935542 12.487488"
   version="1.1"
   id="svg8"
   inkscape:version="1.0.1 (3bc2e813f5, 2020-09-07)"
   sodipodi:docname="tick.svg">
  <defs
     id="defs2" />
  <sodipodi:namedview
     id="base"
     pagecolor="#ffffff"
     bordercolor="#666666"
     borderopacity="1.0"
     inkscape:pageopacity="0.0"
     inkscape:pageshadow="2"
     inkscape:zoom="3.959798"
     inkscape:cx="80.101908"
     inkscape:cy="70.586164"
     inkscape:document-units="mm"
     inkscape:current-layer="layer1"
     inkscape:document-rotation="0"
     showgrid="false"
     inkscape:window-width="2560"
     inkscape:window-height="1377"
     inkscape:window-x="1912"
     inkscape:window-y="-8"
     inkscape:window-maximized="1" />
  <metadata
     id="metadata5">
    <rdf:RDF>
      <cc:Work
         rdf:about="">
        <dc:format>image/svg+xml</dc:format>
        <dc:type
           rdf:resource="http://purl.org/dc/dcmitype/StillImage" />
        <dc:title></dc:title>
      </cc:Work>
    </rdf:RDF>
  </metadata>
  <g
     inkscape:label="Ebene 1"
     inkscape:groupmode="layer"
     id="layer1"
     transform="translate(-30.229336,-28.933087)">
    <path
       style="fill:#eb7d00;fill-opacity:1;stroke-width:0.0266145"
       d="m 35.167213,41.404685 c -0.102466,-0.01825 -0.207098,-0.04555 -0.232516,-0.06067 -0.02542,-0.01512 -0.05751,-0.02748 -0.07131,-0.02748 -0.104467,0 -0.545902,-0.420113 -2.451541,-2.333126 -2.300519,-2.309421 -2.182164,-2.175017 -2.181242,-2.47703 8.25e-4,-0.270505 0.03467,-0.31847 0.686399,-0.972776 0.33221,-0.333524 0.639948,-0.625316 0.683862,-0.648425 0.04391,-0.02311 0.165338,-0.04814 0.269831,-0.05561 0.339961,-0.02432 0.300488,-0.05603 1.809148,1.453238 0.733576,0.733872 1.347373,1.334312 1.363995,1.334312 0.01662,0 0.03022,-0.01112 0.03022,-0.02471 0,-0.01359 0.01497,-0.04054 0.03327,-0.05988 0.0183,-0.01934 0.12908,-0.178813 0.246184,-0.354379 0.180903,-0.271214 0.38378,-0.565335 0.459063,-0.665527 0.02318,-0.03085 0.516823,-0.765499 1.055125,-1.570257 0.205617,-0.307398 0.380227,-0.564894 0.388021,-0.572213 0.01603,-0.01506 0.531929,-0.77741 0.572941,-0.846652 0.01464,-0.02471 0.03387,-0.05092 0.04275,-0.05824 0.01408,-0.01162 0.311836,-0.452182 0.423008,-0.625895 0.02196,-0.03431 0.116982,-0.173996 0.211166,-0.310416 0.09418,-0.13642 0.279643,-0.409718 0.412129,-0.607331 0.132488,-0.197613 0.24723,-0.365285 0.254984,-0.372604 0.0078,-0.0073 0.126681,-0.180978 0.264281,-0.38591 0.1376,-0.204932 0.406893,-0.604302 0.59843,-0.887489 0.191538,-0.283187 0.366215,-0.542905 0.388172,-0.57715 0.158012,-0.246446 0.354163,-0.515657 0.41728,-0.572703 0.131481,-0.118835 0.161879,-0.134979 0.326483,-0.173378 0.176143,-0.04109 0.400566,-0.01415 0.482601,0.05794 0.02311,0.02031 0.05024,0.03692 0.06029,0.03692 0.01005,0 0.126147,0.07485 0.257991,0.166341 0.131843,0.09149 0.260173,0.178317 0.285179,0.192955 0.025,0.01464 0.111565,0.07577 0.192359,0.135851 0.08079,0.06008 0.188815,0.130615 0.240047,0.156747 0.05123,0.02613 0.09914,0.05546 0.106458,0.06517 0.0073,0.0097 0.05756,0.05088 0.111648,0.09148 0.05409,0.0406 0.134929,0.130843 0.179649,0.200532 0.07376,0.114945 0.08131,0.146971 0.08131,0.345007 0,0.244866 -0.01491,0.282674 -0.253246,0.642011 -0.04369,0.06587 -0.08843,0.131742 -0.09943,0.14638 -0.109836,0.146177 -0.259455,0.362715 -0.259455,0.375502 0,0.0088 -0.03593,0.06142 -0.07984,0.116867 -0.04391,0.05545 -0.07984,0.11306 -0.07984,0.128031 0,0.01497 -0.009,0.03121 -0.01996,0.03609 -0.02545,0.01131 -0.07184,0.0789 -1.111342,1.61905 -0.163014,0.241526 -0.409308,0.604997 -0.54732,0.807713 -0.138012,0.202715 -0.262907,0.388305 -0.277545,0.41242 -0.01464,0.02412 -0.05955,0.08754 -0.0998,0.140932 -0.04026,0.0534 -0.07319,0.103995 -0.07319,0.112439 0,0.02228 -0.162724,0.256442 -0.232877,0.335118 -0.03294,0.03694 -0.05988,0.07753 -0.05988,0.09021 0,0.01268 -0.03593,0.06842 -0.07984,0.123867 -0.04391,0.05545 -0.07984,0.109341 -0.07984,0.119766 0,0.01043 -0.03593,0.06432 -0.07984,0.119765 -0.04391,0.05545 -0.07984,0.11306 -0.07984,0.128031 0,0.01497 -0.009,0.03121 -0.01996,0.03609 -0.02178,0.0097 -0.08039,0.09353 -0.443367,0.634313 -0.132641,0.197612 -0.247332,0.365284 -0.254868,0.372603 -0.0075,0.0073 -0.162419,0.234874 -0.344183,0.505676 -0.414717,0.617869 -0.903494,1.34105 -1.228716,1.817973 -0.137825,0.202114 -0.262568,0.387703 -0.277206,0.412419 -0.01464,0.02472 -0.05955,0.08863 -0.09981,0.142026 -0.04025,0.0534 -0.07319,0.109334 -0.07319,0.124305 0,0.01497 -0.0095,0.03121 -0.02105,0.03609 -0.01158,0.0049 -0.05728,0.06277 -0.101571,0.128636 -0.04429,0.06587 -0.136616,0.201365 -0.205175,0.301096 -0.06856,0.09973 -0.124652,0.186527 -0.124652,0.192881 0,0.0063 -0.0509,0.08181 -0.113112,0.167682 -0.06221,0.08587 -0.131076,0.182941 -0.153033,0.21571 -0.09361,0.139705 -0.268963,0.293921 -0.452447,0.397919 -0.128586,0.07288 -0.369962,0.09977 -0.572212,0.06374 z"
       id="path24" />
  </g>
</svg>
