<?xml version="1.0" encoding="UTF-8" standalone="no"?>
<svg
   xmlns:dc="http://purl.org/dc/elements/1.1/"
   xmlns:cc="http://creativecommons.org/ns#"
   xmlns:rdf="http://www.w3.org/1999/02/22-rdf-syntax-ns#"
   xmlns:svg="http://www.w3.org/2000/svg"
   xmlns="http://www.w3.org/2000/svg"
   xmlns:sodipodi="http://sodipodi.sourceforge.net/DTD/sodipodi-0.dtd"
   xmlns:inkscape="http://www.inkscape.org/namespaces/inkscape"
   width="21.117722mm"
   height="22.75206mm"
   viewBox="0 0 21.117722 22.75206"
   version="1.1"
   id="svg8"
   inkscape:version="1.0.1 (3bc2e813f5, 2020-09-07)"
   sodipodi:docname="up_button.svg">
  <defs
     id="defs2" />
  <sodipodi:namedview
     id="base"
     pagecolor="#ffffff"
     bordercolor="#666666"
     borderopacity="1.0"
     inkscape:pageopacity="0.0"
     inkscape:pageshadow="2"
     inkscape:zoom="0.49497475"
     inkscape:cx="-46.699468"
     inkscape:cy="227.7991"
     inkscape:document-units="mm"
     inkscape:current-layer="svg8"
     inkscape:document-rotation="0"
     showgrid="false"
     inkscape:window-width="2560"
     inkscape:window-height="1377"
     inkscape:window-x="1912"
     inkscape:window-y="-8"
     inkscape:window-maximized="1" />
  <metadata
     id="metadata5">
    <rdf:RDF>
      <cc:Work
         rdf:about="">
        <dc:format>image/svg+xml</dc:format>
        <dc:type
           rdf:resource="http://purl.org/dc/dcmitype/StillImage" />
        <dc:title></dc:title>
      </cc:Work>
    </rdf:RDF>
  </metadata>
  <path
     style="display:inline;fill:#ffffff;stroke-width:0.264583"
     d="m 9.2023946,22.3174 c -0.27334,-0.32878 -0.38337,-1.70257 -0.44499,-5.55625 -0.045,-2.81572 -0.14452,-5.11948 -0.22109,-5.11948 -0.0766,0 -1.09299,0.9525 -2.25872,2.11666 -2.28343,2.28036 -2.95826,2.54985 -3.93622,1.5719 -1.08518,-1.08517 -0.68568,-1.76614 3.55305,-6.05641 3.18243,-3.22111 4.0739,-3.98215 4.6646404,-3.98215 0.59074,0 1.48221,0.76104 4.66463,3.98215 4.23874,4.29027 4.63823,4.97124 3.55305,6.05641 -0.97682,0.97683 -1.64927,0.70745 -4.02458,-1.61223 l -2.20873,-2.157 -0.13229,5.1597 c -0.0981,3.82623 -0.22614,5.27262 -0.49542,5.59659 -0.48179,0.57964 -2.2314504,0.57971 -2.7133304,1.1e-4 z M 0.50489458,2.91042 c -0.70239,-0.70239 -0.66941,-1.6281 0.0832,-2.33513 C 1.1930846,0.00692 1.3135246,0 10.596145,0 h 9.39568 l 0.57529,0.61237 c 0.71762,0.76387 0.73459,1.60958 0.0461,2.29805 -0.50957,0.50956 -0.88195,0.52916 -10.05417,0.52916 -9.1722304,0 -9.5446004,-0.0196 -10.05417042,-0.52916 z"
     id="path24"
     sodipodi:nodetypes="sssssssssscsssssscsssss" />
</svg>
